# xmcd CD database file
#
# Track frame offsets:
#	150
#	19045
#	39077
#	67025
#	93175
#	114372
#	134837
#	169630
#	185110
#	201227
#	215705
#	231290
#	248165
#	270050
#
# Disc length: 3858 seconds
#
# Revision: 7
# Processed by: cddbd v1.5.2PL0 Copyright (c) Steve Scherf et al.
# Submitted via: CDex 1.72
#
DISCID=c30f100e
DTITLE=Walker, Jerry Jeff (USA-91-Great Gonzoz-cty) - Great Gonzos
DYEAR=1991
DGENRE=Country
TTITLE0=Gettin' By
TTITLE1=Sangria Wine
TTITLE2=Mr. Bojangles
TTITLE3=Desperados Waiting for the Train
TTITLE4=Pick Up the Tempo
TTITLE5=Up Against the Wall Redneck
TTITLE6=London Homesick Blues
TTITLE7=Takin' It as It Comes
TTITLE8=Backsliders Wine
TTITLE9=Old Five and Dimers Like Me
TTITLE10=Charlie Dunn
TTITLE11=Railroad Lady
TTITLE12=L.A. Freeway
TTITLE13=Don't It Make You Wanna Dance
EXTD=YEAR: 1991
EXTT0=
EXTT1=
EXTT2=
EXTT3=
EXTT4=
EXTT5=
EXTT6=
EXTT7=
EXTT8=
EXTT9=
EXTT10=
EXTT11=
EXTT12=
EXTT13=
PLAYORDER=
